<svg width="34" height="35" viewBox="0 0 34 35" fill="none" xmlns="http://www.w3.org/2000/svg">
<path d="M24.922 0C30.702 0 34 3.36 34 9.3275V25.6725C34 31.605 30.719 35 24.939 35H9.061C3.264 35 0 31.605 0 25.6725V9.3275C0 3.36 3.264 0 9.061 0H24.922ZM16.983 9.6425C16.201 9.6425 15.572 10.29 15.572 11.095V16.03H10.761C10.387 16.03 10.03 16.1875 9.758 16.45C9.503 16.73 9.35 17.0957 9.35 17.4825C9.35 18.2875 9.979 18.935 10.761 18.9525H15.572V23.905C15.572 24.71 16.201 25.3575 16.983 25.3575C17.765 25.3575 18.394 24.71 18.394 23.905V18.9525H23.222C24.004 18.935 24.633 18.2875 24.633 17.4825C24.633 16.6775 24.004 16.03 23.222 16.03H18.394V11.095C18.394 10.29 17.765 9.6425 16.983 9.6425Z" fill="white"/>
</svg>
